<?xml version="1.0" standalone="no"?>
<!DOCTYPE svg PUBLIC "-//W3C//DTD SVG 20010904//EN"
 "http://www.w3.org/TR/2001/REC-SVG-20010904/DTD/svg10.dtd">
<svg version="1.0" xmlns="http://www.w3.org/2000/svg"
 width="500.000000pt" height="500.000000pt" viewBox="0 0 500.000000 500.000000"
 preserveAspectRatio="xMidYMid meet">

<g transform="translate(0.000000,500.000000) scale(0.100000,-0.100000)"
fill="#000000" stroke="none">
<path d="M2561 3925 c-30 -12 -58 -30 -62 -38 -5 -8 -3 -33 4 -58 13 -43 14
-44 53 -41 49 4 114 65 114 109 0 22 2 25 10 13 6 -8 7 -27 4 -42 -4 -21 0
-29 18 -39 13 -6 49 -38 80 -71 57 -59 57 -59 86 -44 21 11 48 13 106 9 94 -7
81 -23 -19 -23 -54 0 -76 -5 -95 -20 l-25 -20 23 0 c12 0 22 -4 22 -10 0 -5
-14 -10 -30 -10 -37 0 -117 -39 -147 -72 -12 -12 -29 -36 -37 -53 -14 -28 -14
-30 2 -36 14 -6 13 -9 -10 -19 -52 -24 -125 41 -135 121 -20 162 -204 192
-301 49 -20 -30 -23 -43 -19 -89 3 -30 12 -58 18 -62 8 -5 12 -25 10 -54 -2
-42 -1 -46 16 -41 15 5 28 -5 53 -39 19 -25 40 -45 48 -45 24 0 71 60 86 109
l15 46 0 -35 c1 -19 -8 -50 -20 -69 -14 -24 -17 -37 -10 -44 8 -8 20 -2 41 21
46 51 46 37 0 -18 -23 -27 -47 -50 -53 -50 -8 0 -7 -4 1 -12 24 -24 11 -25
-35 -2 -35 18 -56 23 -82 18 -48 -9 -96 -39 -127 -80 -15 -20 -35 -34 -48 -34
-38 -1 -56 -24 -56 -73 0 -34 -6 -53 -24 -74 l-25 -28 15 45 c21 60 13 100
-41 211 -29 60 -45 106 -45 130 0 21 -4 41 -10 44 -5 3 -10 11 -10 18 0 8 3 8
12 -1 17 -17 70 -15 94 3 10 8 31 15 45 15 30 0 47 27 24 36 -8 4 -15 13 -15
20 0 21 -87 56 -109 45 -9 -5 -38 -32 -63 -59 -40 -42 -48 -59 -63 -126 -34
-151 -5 -400 54 -462 13 -15 38 -23 87 -29 139 -17 185 -5 286 76 51 40 105
57 135 43 15 -6 12 -9 -12 -12 -50 -6 -49 -17 7 -66 60 -52 108 -78 188 -101
l55 -15 -61 4 c-34 2 -83 13 -109 25 -27 12 -49 20 -51 18 -3 -3 -4 -63 -3
-152 1 -55 -14 -140 -25 -147 -6 -4 -40 -8 -76 -9 -36 0 -110 -7 -165 -14 -89
-11 -40 -12 455 -12 497 0 544 1 450 12 -58 7 -124 14 -147 14 -36 1 -44 6
-62 34 -11 18 -41 48 -66 67 -48 36 -46 52 3 27 l29 -14 76 151 c42 83 81 169
86 191 6 22 9 101 7 175 -4 133 -15 189 -52 262 -17 33 -18 46 -2 30 7 -7 15
-12 19 -12 14 0 21 85 9 115 -11 29 -10 29 7 12 12 -12 18 -33 18 -67 0 -28 4
-50 9 -50 26 0 74 72 91 136 32 123 32 125 -17 184 -55 68 -127 108 -258 143
-143 39 -183 41 -249 12z m181 -702 c62 -64 80 -118 83 -253 1 -64 5 -122 9
-128 3 -6 3 -30 0 -54 l-7 -43 -15 60 c-7 33 -17 114 -21 180 -8 130 -22 175
-72 238 -16 20 -26 37 -22 37 5 0 25 -17 45 -37z m-217 -646 c-8 -21 -20 -37
-25 -37 -14 0 -13 6 12 44 28 43 33 40 13 -7z"/>
<path d="M1461 2345 c-170 -53 -190 -298 -32 -382 62 -32 160 -32 222 0 126
67 146 248 38 341 -62 53 -143 68 -228 41z m184 -97 c42 -46 52 -99 29 -156
-54 -136 -252 -114 -279 30 -10 51 9 101 52 139 34 29 40 31 101 27 59 -4 67
-7 97 -40z"/>
<path d="M1090 2145 l0 -205 45 0 45 0 0 205 0 205 -45 0 -45 0 0 -205z"/>
<path d="M1850 2320 l0 -30 70 0 70 0 0 -175 0 -175 35 0 35 0 0 175 0 175 70
0 70 0 0 30 0 30 -175 0 -175 0 0 -30z"/>
<path d="M2320 2145 l0 -205 35 0 35 0 0 205 0 205 -35 0 -35 0 0 -205z"/>
<path d="M2520 2343 c0 -5 39 -97 86 -205 l87 -198 36 0 37 0 83 193 c46 105
86 198 89 205 3 10 -5 13 -33 10 l-38 -3 -66 -153 c-53 -123 -68 -150 -77
-138 -6 9 -37 78 -70 156 l-59 140 -37 0 c-21 0 -38 -3 -38 -7z"/>
<path d="M3060 2145 l0 -205 35 0 35 0 0 205 0 205 -35 0 -35 0 0 -205z"/>
<path d="M3250 2320 l0 -30 70 0 70 0 0 -175 0 -175 40 0 40 0 0 175 0 175 65
0 65 0 0 30 0 30 -175 0 -175 0 0 -30z"/>
<path d="M3670 2346 c0 -3 34 -61 75 -129 l75 -125 0 -76 0 -76 40 0 40 0 0
74 0 75 75 124 c41 69 75 128 75 131 0 3 -15 6 -32 6 -31 0 -37 -7 -91 -95
-32 -52 -61 -95 -65 -95 -4 0 -32 43 -62 95 -54 93 -56 95 -92 95 -21 0 -38
-2 -38 -4z"/>
<path d="M3811 1847 c-1 -21 21 -18 27 4 3 12 2 12 -6 0 -8 -11 -10 -11 -15 0
-4 10 -6 8 -6 -4z"/>
<path d="M3972 1840 c9 -14 14 -16 20 -7 4 7 8 17 8 22 0 6 -5 3 -10 -5 -6
-10 -10 -11 -10 -2 0 6 -5 12 -10 12 -6 0 -5 -8 2 -20z"/>
<path d="M4030 1850 c0 -5 5 -10 11 -10 5 0 7 5 4 10 -3 6 -8 10 -11 10 -2 0
-4 -4 -4 -10z"/>
<path d="M4080 1845 c0 -28 36 -28 38 0 1 16 -1 17 -8 5 -9 -13 -11 -13 -20 0
-8 12 -10 12 -10 -5z"/>
<path d="M4150 1850 c0 -5 5 -10 11 -10 5 0 7 5 4 10 -3 6 -8 10 -11 10 -2 0
-4 -4 -4 -10z"/>
<path d="M4201 1843 c-1 -17 5 -23 18 -23 25 0 37 18 22 33 -9 9 -11 8 -6 -5
5 -12 2 -18 -8 -18 -9 0 -18 8 -20 18 -4 13 -5 11 -6 -5z"/>
<path d="M4300 1838 c0 -11 7 -18 20 -18 13 0 20 7 20 18 0 11 -7 18 -20 18
-13 0 -20 -7 -20 -18z"/>
<path d="M4370 1851 c0 -3 4 -12 9 -19 6 -11 9 -9 13 5 3 12 0 20 -8 20 -8 0
-14 -3 -14 -6z"/>
<path d="M4450 1845 c0 -28 36 -28 38 0 1 16 -1 17 -8 5 -9 -13 -11 -13 -20 0
-8 12 -10 12 -10 -5z"/>
<path d="M4521 1844 c0 -11 3 -14 6 -6 3 7 2 16 -1 19 -3 4 -6 -2 -5 -13z"/>
<path d="M4572 1840 c0 -14 2 -19 5 -12 2 6 2 18 0 25 -3 6 -5 1 -5 -13z"/>
<path d="M4640 1847 c0 -8 -8 -18 -17 -20 -17 -4 -17 -5 0 -6 18 -1 35 25 23
36 -3 4 -6 -1 -6 -10z"/>
<path d="M4760 1840 c0 -13 6 -20 18 -19 12 0 13 2 3 6 -10 4 -10 7 -1 13 8 5
7 9 -4 13 -11 5 -16 1 -16 -13z"/>
<path d="M4880 1835 c0 -17 2 -17 10 -5 9 13 11 13 20 0 8 -12 10 -12 10 5 0
14 -6 21 -20 21 -14 0 -20 -7 -20 -21z"/>
<path d="M3940 1841 c0 -5 5 -13 10 -16 6 -3 10 -2 10 4 0 5 -4 13 -10 16 -5
3 -10 2 -10 -4z"/>
<path d="M3880 1826 c7 -7 13 -7 20 0 6 6 3 10 -10 10 -13 0 -16 -4 -10 -10z"/>
<path d="M4038 1823 c7 -3 16 -2 19 1 4 3 -2 6 -13 5 -11 0 -14 -3 -6 -6z"/>
<path d="M4158 1823 c7 -3 16 -2 19 1 4 3 -2 6 -13 5 -11 0 -14 -3 -6 -6z"/>
<path d="M4828 1823 c7 -3 16 -2 19 1 4 3 -2 6 -13 5 -11 0 -14 -3 -6 -6z"/>
<path d="M1224 1664 c3 -9 9 -27 12 -40 8 -32 22 -30 35 4 l11 27 10 -27 c13
-36 24 -35 37 3 15 44 12 61 -4 24 l-13 -30 -11 28 c-6 15 -14 27 -19 27 -4 0
-13 -12 -19 -27 l-10 -28 -8 28 c-4 15 -12 27 -17 27 -6 0 -7 -7 -4 -16z"/>
<path d="M1392 1668 c-28 -28 -3 -72 39 -66 30 4 47 33 33 56 -14 21 -55 27
-72 10z m56 -22 c4 -21 -14 -37 -35 -29 -14 5 -18 35 -6 47 12 12 38 1 41 -18z"/>
<path d="M1510 1640 c0 -38 13 -54 23 -27 4 10 7 10 18 0 17 -16 37 -17 21 -1
-8 8 -9 15 -1 25 18 21 2 43 -31 43 -28 0 -30 -2 -30 -40z m50 15 c0 -8 -7
-15 -15 -15 -8 0 -15 7 -15 15 0 8 7 15 15 15 8 0 15 -7 15 -15z"/>
<path d="M1620 1640 c0 -22 5 -40 10 -40 6 0 10 7 10 15 0 20 17 19 29 -2 5
-10 13 -15 17 -10 4 4 0 15 -10 26 -15 16 -15 19 -1 31 9 7 13 15 10 18 -3 3
-14 -3 -25 -13 -18 -16 -20 -16 -20 -2 0 10 -4 17 -10 17 -5 0 -10 -18 -10
-40z"/>
<path d="M1734 1666 c-9 -23 -1 -48 19 -60 25 -16 52 4 52 40 0 25 -4 29 -33
32 -22 2 -34 -2 -38 -12z m60 -13 c4 -9 0 -23 -9 -32 -13 -14 -17 -14 -30 0
-19 19 -10 49 15 49 10 0 21 -8 24 -17z"/>
<path d="M1861 1647 c-1 -41 19 -58 48 -40 18 11 28 73 12 73 -6 0 -11 -13
-11 -29 0 -52 -35 -49 -43 4 -4 27 -4 26 -6 -8z"/>
<path d="M1973 1673 c12 -3 17 -15 17 -39 0 -19 5 -34 10 -34 6 0 10 15 10 34
0 19 6 37 13 39 6 3 -6 5 -28 5 -22 0 -32 -2 -22 -5z"/>
<path d="M2130 1640 c0 -39 1 -40 33 -39 23 1 26 3 10 6 -19 4 -23 11 -23 39
0 19 -4 34 -10 34 -5 0 -10 -18 -10 -40z"/>
<path d="M2220 1640 c0 -22 5 -40 10 -40 6 0 10 18 10 40 0 22 -4 40 -10 40
-5 0 -10 -18 -10 -40z"/>
<path d="M2291 1641 c-1 -39 1 -43 12 -27 12 16 14 16 26 2 21 -26 33 -18 15
9 -13 20 -14 28 -4 40 7 9 8 15 2 15 -5 0 -12 -7 -16 -15 -7 -20 -24 -19 -29
3 -3 9 -5 -3 -6 -27z"/>
<path d="M2400 1640 c0 -39 1 -40 33 -39 27 1 29 2 9 7 -28 8 -30 24 -5 33 15
6 14 8 -6 8 -28 1 -19 16 14 24 13 3 9 5 -12 6 -32 1 -33 0 -33 -39z"/>
<path d="M2561 1638 c1 -24 4 -33 6 -20 5 27 11 28 40 0 l23 -21 -1 44 c-1 24
-4 34 -6 22 -5 -28 -14 -29 -31 -3 -20 32 -32 23 -31 -22z"/>
<path d="M2680 1640 c0 -39 1 -40 33 -39 27 1 29 2 9 7 -28 8 -30 24 -5 33 15
6 14 8 -6 8 -28 1 -19 16 14 24 13 3 9 5 -12 6 -32 1 -33 0 -33 -39z"/>
<path d="M2788 1640 c9 -22 20 -40 24 -40 11 0 40 60 35 73 -3 7 -10 0 -16
-15 -13 -34 -19 -35 -31 -3 -5 14 -14 25 -19 25 -5 0 -2 -18 7 -40z"/>
<path d="M2890 1640 c0 -40 0 -40 38 -39 30 2 32 3 10 6 -34 5 -37 30 -5 36
l22 4 -22 2 c-13 0 -23 5 -23 10 0 5 10 12 23 14 16 3 13 5 -10 6 -32 1 -33 0
-33 -39z"/>
<path d="M3000 1640 c0 -38 13 -54 23 -27 4 10 7 10 18 0 17 -16 37 -17 21 -1
-8 8 -9 15 -1 25 18 21 2 43 -31 43 -28 0 -30 -2 -30 -40z m50 15 c0 -8 -7
-15 -15 -15 -8 0 -15 7 -15 15 0 8 7 15 15 15 8 0 15 -7 15 -15z"/>
<path d="M3170 1640 c0 -38 2 -40 29 -40 36 0 43 9 35 49 -6 26 -11 31 -35 31
-27 0 -29 -3 -29 -40z m50 20 c0 -5 -9 -10 -20 -10 -11 0 -20 5 -20 10 0 6 9
10 20 10 11 0 20 -4 20 -10z m0 -35 c0 -8 -6 -15 -14 -15 -17 0 -28 14 -19 24
12 12 33 6 33 -9z"/>
<path d="M3280 1640 c0 -39 1 -40 33 -39 23 1 26 3 10 6 -13 2 -23 11 -23 18
0 7 10 16 23 18 l22 4 -22 2 c-13 0 -23 5 -23 10 0 5 10 12 23 14 16 3 13 5
-10 6 -32 1 -33 0 -33 -39z"/>
<path d="M3380 1640 c0 -22 5 -40 10 -40 6 0 10 6 10 14 0 8 10 17 23 19 l22
4 -22 2 c-13 0 -23 7 -23 15 0 8 10 17 23 19 16 3 13 5 -10 6 -32 1 -33 0 -33
-39z"/>
<path d="M3492 1668 c-30 -30 0 -75 42 -64 29 7 40 31 26 57 -12 21 -50 25
-68 7z m55 -14 c7 -19 -20 -49 -36 -40 -12 8 -15 39 -4 49 12 12 33 7 40 -9z"/>
<path d="M3610 1640 c0 -38 13 -54 23 -27 4 10 7 10 18 0 17 -16 37 -17 21 -1
-8 8 -9 15 -1 25 18 21 2 43 -31 43 -28 0 -30 -2 -30 -40z m50 15 c0 -8 -7
-15 -15 -15 -8 0 -15 7 -15 15 0 8 7 15 15 15 8 0 15 -7 15 -15z"/>
<path d="M3720 1640 c0 -39 1 -40 33 -39 27 1 29 2 9 7 -28 8 -30 24 -5 33 15
6 14 8 -6 8 -28 1 -19 16 14 24 13 3 9 5 -12 6 -32 1 -33 0 -33 -39z"/>
<path d="M2629 1460 c-31 -25 -18 -25 23 0 20 12 26 20 17 20 -9 0 -27 -9 -40
-20z"/>
<path d="M2406 1378 c-19 -31 -42 -266 -28 -280 13 -13 89 -27 154 -27 35 -1
50 3 56 17 6 9 15 72 22 140 15 146 15 147 -76 162 -90 15 -112 13 -128 -12z
m131 -135 c2 -6 -7 -24 -21 -39 l-24 -29 -20 24 c-29 37 -18 60 26 57 20 -1
37 -7 39 -13z m-98 -25 c0 -13 -3 -17 -6 -10 -2 6 -12 12 -21 13 -14 0 -13 2
3 9 11 5 21 9 23 9 1 1 2 -9 1 -21z m121 -4 c0 -8 -5 -12 -10 -9 -6 4 -8 11
-5 16 9 14 15 11 15 -7z"/>
<path d="M2725 1330 c-4 -6 10 -7 39 -4 43 6 46 5 56 -21 6 -15 11 -55 13 -89
2 -57 1 -61 -22 -64 -13 -2 -39 -1 -58 3 -27 5 -33 10 -29 23 5 13 3 13 -9 -2
-8 -11 -15 -32 -15 -47 0 -28 16 -40 53 -38 16 1 13 3 -10 10 -21 6 -33 16
-33 27 0 14 10 17 67 17 l68 0 -1 70 c-1 39 -7 82 -13 98 -9 24 -16 27 -55 27
-25 0 -48 -4 -51 -10z"/>
<path d="M2625 1220 c-8 -13 3 -30 18 -30 8 0 7 3 -2 9 -7 5 -10 14 -7 20 4 6
5 11 2 11 -3 0 -8 -4 -11 -10z"/>
<path d="M2770 1170 c0 -5 7 -10 15 -10 8 0 15 5 15 10 0 6 -7 10 -15 10 -8 0
-15 -4 -15 -10z"/>
<path d="M2800 1090 c0 -5 11 -10 24 -10 14 0 28 5 31 10 4 6 -7 10 -24 10
-17 0 -31 -4 -31 -10z"/>
<path d="M2765 1050 c3 -5 10 -10 16 -10 5 0 9 5 9 10 0 6 -7 10 -16 10 -8 0
-12 -4 -9 -10z"/>
<path d="M2757 1014 c-8 -8 1 -24 14 -24 5 0 9 7 9 15 0 15 -12 20 -23 9z"/>
<path d="M2737 974 c-8 -8 1 -24 14 -24 5 0 9 7 9 15 0 15 -12 20 -23 9z"/>
<path d="M2711 924 c-18 -21 -6 -30 14 -11 8 9 15 18 15 21 0 11 -15 5 -29
-10z"/>
<path d="M2590 901 c0 -12 37 -34 51 -29 5 2 -4 11 -21 21 -16 10 -30 14 -30
8z"/>
</g>
</svg>
